<svg version="1.2" baseProfile="tiny" xmlns="http://www.w3.org/2000/svg" viewBox="18 -25.9 100 89.9"><path d="M118 1c.1-.5 0-1-.1-1.4-.8-5-5.2-8.9-10.5-8.9H91.5c-1-11.6-8.1-16.6-23.5-16.6s-22.5 5-23.5 16.7H28.6c-5.3 0-9.6 3.9-10.5 8.9-.1.4-.1.9-.1 1.3v52.2c0 5.9 4.8 10.6 10.6 10.6h78.7c5.9 0 10.6-4.8 10.6-10.6V1.4c.1-.1.1-.2.1-.4zM68-17.6c12.9 0 14.9 3.5 15.2 8.3H52.8c.3-4.8 2.3-8.3 15.2-8.3zM28.6-3h78.7c2 0 3.6 1.3 4.2 3.2L103 15c-1.5 2.6-5.5 4.9-8.5 4.9H78.8v-1.6c0-3.8-3.1-6.9-6.9-6.9h-7.8c-3.8 0-6.9 3.1-6.9 6.9v1.6H41.5c-3 0-7-2.3-8.5-4.9L24.5.1A4.2 4.2 0 0 1 28.6-3zm43.9 21.2v11.6c0 .3-.3.6-.6.6h-7.8c-.3 0-.6-.3-.6-.6V18.2c0-.3.3-.6.6-.6h7.8c.3 0 .6.3.6.6zm34.9 39.5H28.6c-2.4 0-4.4-2-4.4-4.4v-41l3.3 5.7c2.6 4.5 8.7 8.1 14 8.1h15.8v3.7c0 3.8 3.1 6.9 6.9 6.9H72c3.8 0 6.9-3.1 6.9-6.9v-3.7h15.8c5.2 0 11.4-3.5 14-8.1l3.3-5.7v41c-.3 2.4-2.2 4.4-4.6 4.4z"/></svg>