<svg version="1.2" baseProfile="tiny" xmlns="http://www.w3.org/2000/svg" viewBox="27 -17.1 82.7 71.1"><path d="M76.3 2.4C88-4 100.2.6 100.2.6v5.9s-11.8-3.9-23.9 2V2.4zm0 11.8c11.7-6.4 23.9-1.8 23.9-1.8v5.9s-11.8-3.9-23.9 2v-6.1zm0 11.8c11.7-6.4 23.9-1.8 23.9-1.8v5.9s-11.8-3.9-23.9 2V26z"/><path d="M68.3-10.7C50.5-23.3 27-13.4 27-13.4v65s23-7 39.4 2.3l.1.1h3.7l.1-.1c16.4-9.3 39.4-2.3 39.4-2.3v-65s-23.5-9.9-41.4 2.7zm-2.1 57.8c-15.8-8.8-33.3-3.4-33.3-3.4V-8.7s17.1-7 33.3 3.3v52.5zm37.6-3.4s-17.4-5.4-33.3 3.4V-5.4c16.2-10.3 33.3-3.3 33.3-3.3v52.4z"/><path d="M60.4 2.4C48.7-4 36.5.6 36.5.6v5.9s11.8-3.9 23.9 2V2.4zm0 11.8c-11.7-6.4-23.9-1.8-23.9-1.8v5.9s11.8-3.9 23.9 2v-6.1zm0 11.8c-11.7-6.4-23.9-1.8-23.9-1.8v5.9s11.8-3.9 23.9 2V26z"/></svg>