<svg version="1.2" baseProfile="tiny" xmlns="http://www.w3.org/2000/svg" viewBox="22.8 -22.8 90.4 83.5"><path d="M48.1-3.7H24.6c-1 0-1.8.8-1.8 1.8v28.6c0 1 .8 1.8 1.8 1.8h5.3v22.8c0 1 .8 1.8 1.8 1.8H41c1 0 1.8-.8 1.8-1.8V28.5h5.3c1 0 1.8-.8 1.8-1.8V-1.9c0-1-.8-1.8-1.8-1.8z"/><circle cx="36.4" cy="-13.9" r="8.8"/><path d="M111.4-3.7H87.9c-1 0-1.8.8-1.8 1.8v28.6c0 1 .8 1.8 1.8 1.8h5.3v22.8c0 1 .8 1.8 1.8 1.8h9.3c1 0 1.8-.8 1.8-1.8V28.5h5.3c1 0 1.8-.8 1.8-1.8V-1.9c0-1-.8-1.8-1.8-1.8z"/><circle cx="99.6" cy="-13.9" r="8.8"/><circle cx="68" cy="-6.3" r="8.8"/><path d="M79.8 3.9h-4.9l-5.2 14-1.2-11.4.9-1L68 3.9l-1.3 1.5.9 1-1.2 11.5-5.2-14h-4.9c-1 0-1.8.8-1.8 1.8v28.6c0 1 .8 1.8 1.8 1.8h5.3V59c0 1 .8 1.8 1.8 1.8h9.3c1 0 1.8-.8 1.8-1.8V36.1h5.3c1 0 1.8-.8 1.8-1.8V5.7c0-1-.8-1.8-1.8-1.8z"/></svg>