<svg version="1.2" baseProfile="tiny" xmlns="http://www.w3.org/2000/svg" viewBox="0 0 99.4 101"><path fill-rule="evenodd" fill="#C13A35" d="M99.4 0H0v101h99.4V0zM60.3 45l-.1-1.2V26.6c.1-.2-.1-.1.2-.1h4.8v15.1c0 .3-.1 1.3.1 1.5 0 .4.1.5.2.8l.5.1c.8.3 1.3-.2 1.7-.2l.2-.1.6-.4c.2-.1.6-.3.6-.5.1-.1 0 0 .2-.1l.1-.1c.1-.1 0 0 .1-.2V26.7h5v21.2h-4.9c-.1-.4 0-1.7-.1-2.3-.3.2-.6.6-1 .8 0 .1 0 0-.1.2-.9.7-2.3 1.3-3.4 1.5-1 .2-2.4.2-3.3-.5-.4-.3-.5-.5-.7-.6-.1-.3-.2-.3-.2-.6l-.2-.4c-.2-.3-.2-.6-.3-1zM29 51h41.5c4.3 0 7.9 3.6 7.9 8v14.6c0 4.4-3.6 8-7.9 8H29c-4.3 0-7.9-3.6-7.9-8V59.1c0-4.5 3.5-8.1 7.9-8.1zm25.3 22.3V64c.5-.3 1-.8 2-.5.7.2.9.8.9 1.7v8c-.1.8-.5 1.1-1.4 1.1-.5-.1-1.5-.5-1.5-1zm-3.5 3.2V55.8h3.5v6.6c.7-.7 1.9-1.4 3.4-1.4.7 0 1.3.2 1.8.6.6.4.8.9 1 1.4 0 .2 0 .3.2.5 0 .4.1 1.1.1 1.6v8.3c0 .7-.1 1-.3 1.6-.1.1-.1.3-.2.4-.2.2-.2.2-.3.4l-.3.2c-.8.6-1.9.6-2.8.5-.9-.1-2.1-.7-2.5-1.3v1.1l-3.6.2zm16.4-12.1c.1-.4.3-.6.6-.7.2-.3.9-.2 1.2-.2.5.1.7.3.9.6.2.4.3 2.2.2 2.7h-3c-.1-.4-.1-2.1.1-2.4zm-.6-3.3l1.2-.3c.5-.1 1 0 1.5 0 2.2.1 3.6 1.1 4.2 2.8l.2 1.1v4.5h-6.6c0 .5-.1 3.2.1 3.4 0 .3 0 .5.1.6.1.6.5.9 1.2 1 .7 0 1.3-.1 1.5-.6.1-.3.2-.6.2-.9v-1.6h3.6v1.5l-.1.8c-.1.4-.3.9-.4 1.3-.1.1-.2.4-.3.5-.1.2-.3.3-.3.5-.4.1-.9 1.2-3.6 1.3-2.9.2-3.6-.9-4-.9-.2-.2-.2-.3-.4-.4-.2-.2-.2-.3-.4-.4-.1-.3-.3-.5-.4-.8l-.3-.9-.1-.9v-7.4l.2-1.1c.3-.9.8-1.6 1.5-2.2.6-.6.9-.6 1.4-.9zM37.5 74.3V61.2H41v12c.1.4.2.6.5.8.4.1.7 0 1-.1.4-.2 1.3-.7 1.4-1.1V61.4h3.5v15.2h-3.5V75c-.9.6-1.3 1.2-2.7 1.6-2.4.7-3.1-.5-3.3-.5-.2-.5-.3-.6-.5-1.4l.1-.4zM25.4 58.8v-3h12v3h-4v17.7h-3.9V58.9l-4.1-.1zm30.9-24.1v8.1l-.1.7c0 .2 0 .4-.2.5 0 .3-.1.6-.2.9-.1.1-.1.2-.3.4 0 .2 0 .1-.1.3-.1.1-.1.2-.2.3-.2.2-.3.4-.5.5-.1.1-.1.1-.2.3-.1 0-.1 0-.2.1l-.3.3c-1.5 1-3.2 1.3-4.9 1.3-.8 0-1.5-.1-2.3-.2-.3-.1-.7-.2-1-.3-.3-.1-.6-.3-.9-.3-.2-.2-.4-.3-.6-.5l-.6-.5c-.3-.1-.4-.3-.6-.6-.1-.1-.3-.5-.5-.7l-.2-.4-.2-.9-.1-.5-.1-.6V30.6l.1-.5c.1-.4.3-1 .5-1.2.1-.3.3-.5.5-.7.1-.1.4-.5.6-.5l.2-.2c2-1.6 5.6-1.8 7.9-1.2 1.4.4 1.5.7 2.3 1.1l.2.2.2.2.2.1.2.1.7.9v.1c.3.2.4.7.5 1.1.1.2 0 .2.1.4v3.2l.1 1zm-5-1.1v8.2c0 .2.1 1.3-.1 1.4v.3c-.1.3 0 0-.1.2 0 .2 0 .1-.1.3 0-.1 0-.1-.1 0-.2.1-.2.2-.7.4-.3.1-.7.2-1 .2-1.2 0-1.4-.5-1.7-.6-.1-.2-.2-.3-.3-.7V43c-.1-.2-.1-1.1-.1-1.3V31.2c0-.7.3-.8.6-1.2.5-.3.8-.4 1.5-.4.9 0 1 .2 1.6.5 0 .1 0 0 .1.1l.1.1c.2.3.3.5.3.9v2.4zm-13.1-6.2c0 .3-.4 1.1-.5 1.4l-1.1 2.9c-.1.4-.4.9-.4 1.3-.2.2 0 .2-.2.3v.1l-.5 1.3h-.1c0 .3-.3.7-.4 1.1v11.5h-5.5V36.6c0-.9-.5-1.4-.6-2l-.1-.2c0-.1-.1-.1-.1-.2-.1-.3-.4-.9-.4-1.1-.2-.2-.2-.4-.3-.7-.1-.3-.2-.5-.2-.8-.2-.2-.3-.5-.3-.7l-.3-.8-.6-1.5-.6-1.3c-.1-.3-.5-1.1-.5-1.3-.1-.2-.2-.5-.3-.7-.1-.2-.2-.5-.2-.7l-.2-.4c-.1-.3-.4-.8-.4-1.1-.2-.2-.6-1.2-.6-1.5-.2-.2-.4-.8-.5-1.1-.2-.4-.3-.8-.4-1.2h5.5c.2 0 .1.1.3.5l.5 1.7.5 1.5.5 1.4.5 1.5.4 1.3.5 1.5.6 1.7h.3l.5-1.8.4-1.5.4-1.4.4-1.5.4-1.4.4-1.5c.1-.3.6-2.2.8-2.2h5.5c0 .2-.7 2-.9 2.3 0 .2-.3.8-.4 1.1l-.2.3c0 .2-.4 1.3-.6 1.4 0 .3-.4 1.2-.5 1.4 0 .7-.2 1.6-.5 1.8z"/></svg>