<svg version="1.2" baseProfile="tiny" xmlns="http://www.w3.org/2000/svg" viewBox="0 0 36 36"><path fill-rule="evenodd" fill="#4E759D" d="M36 0H0v36h36V0zM11.5 9.5h9.7c1.6 0 2.8.4 3.7 1.2.9.8 1.3 1.8 1.3 3 0 1-.3 1.8-.9 2.5-.4.5-1 .8-1.8 1.1 1.2.3 2.1.8 2.6 1.5.6.7.8 1.6.8 2.6 0 .9-.2 1.6-.6 2.3-.4.7-1 1.2-1.7 1.6-.4.2-1.1.4-2 .5-1.2.2-1.9.2-2.3.2h-8.9V9.5h.1zm5.2 6.6v-3.2H19c.8 0 1.3.1 1.6.4.3.3.5.7.5 1.1 0 .5-.2.9-.5 1.2-.3.3-.9.4-1.7.4h-2.2v.1zm0 6.5v-3.4h2.6c.9 0 1.5.2 1.9.5.4.3.5.7.5 1.2s-.2 1-.5 1.3c-.4.3-1 .5-1.9.5h-2.6z"/></svg>