<svg version="1.2" baseProfile="tiny" xmlns="http://www.w3.org/2000/svg" viewBox="0 0 36 36"><path fill-rule="evenodd" fill="#FA8E12" d="M36 0H0v36h36V0zM16.9 6.7c3.5-1 6.4 1.7 7 4.4.8 3.5-1.7 6.3-4.4 6.9-7.2 1.6-10.3-9.2-2.6-11.3zm-.1 16.2c-.3-.2-1.4-.3-1.9-.5-5.6-1.8-3.6-4.5-2-4.4.6.1 1.1.5 1.5.8 2.3 1.4 5.4 1.3 7.7-.1.5-.3.9-.8 1.6-.7 1 .1 3 1.8-.5 3.6-2 1-2 .7-3.6 1.2.3.5 3.1 3.2 3.9 4 1.3 1.4.2 2.9-1.2 2.7-.9-.1-3.6-3-4.1-3.6-1.1.6-3.1 3.4-4.1 3.6-1.4.2-2.6-1.4-1.2-2.8l3.9-3.8zm.7-13.3c1.7-.5 3.1.7 3.5 2 .5 1.7-.7 3.1-2 3.4-3.7 1-5.2-4.4-1.5-5.4z"/></svg>